<mxfile host="Electron" modified="2023-12-18T11:35:40.299Z" agent="Mozilla/5.0 (X11; Linux x86_64) AppleWebKit/537.36 (KHTML, like Gecko) draw.io/22.1.2 Chrome/114.0.5735.289 Electron/25.9.4 Safari/537.36" etag="x2mwe82kQPfbeCXXRA6V" version="22.1.2" type="device">
  <diagram name="PÃ¡gina-1" id="n10CS2j08bvDup4qeac-">
    <mxGraphModel dx="2431" dy="2012" grid="1" gridSize="10" guides="1" tooltips="1" connect="1" arrows="1" fold="1" page="1" pageScale="1" pageWidth="827" pageHeight="1169" math="0" shadow="0">
      <root>
        <mxCell id="0" />
        <mxCell id="1" parent="0" />
        <mxCell id="PWFX1Capweu_nAeeo7yv-1" value="GYM" style="rounded=1;whiteSpace=wrap;html=1;" parent="1" vertex="1">
          <mxGeometry x="-310" y="90" width="120" height="60" as="geometry" />
        </mxCell>
        <mxCell id="PWFX1Capweu_nAeeo7yv-2" value="ENTRENADOR&amp;nbsp;" style="rounded=1;whiteSpace=wrap;html=1;" parent="1" vertex="1">
          <mxGeometry x="90" y="90" width="120" height="60" as="geometry" />
        </mxCell>
        <mxCell id="PWFX1Capweu_nAeeo7yv-4" value="NOMBRE" style="ellipse;whiteSpace=wrap;html=1;" parent="1" vertex="1">
          <mxGeometry x="477" y="-70" width="86" height="60" as="geometry" />
        </mxCell>
        <mxCell id="PWFX1Capweu_nAeeo7yv-5" value="DNI" style="ellipse;whiteSpace=wrap;html=1;" parent="1" vertex="1">
          <mxGeometry x="400" y="-40" width="86" height="60" as="geometry" />
        </mxCell>
        <mxCell id="PWFX1Capweu_nAeeo7yv-6" value="PRIMER APELLIDO" style="ellipse;whiteSpace=wrap;html=1;" parent="1" vertex="1">
          <mxGeometry x="570" y="-50" width="86" height="60" as="geometry" />
        </mxCell>
        <mxCell id="PWFX1Capweu_nAeeo7yv-7" value="SALARIO" style="ellipse;whiteSpace=wrap;html=1;" parent="1" vertex="1">
          <mxGeometry x="80" y="-50" width="86" height="60" as="geometry" />
        </mxCell>
        <mxCell id="PWFX1Capweu_nAeeo7yv-8" value="" style="endArrow=none;html=1;rounded=0;entryX=0.5;entryY=1;entryDx=0;entryDy=0;exitX=0.5;exitY=0;exitDx=0;exitDy=0;" parent="1" source="PWFX1Capweu_nAeeo7yv-2" target="PWFX1Capweu_nAeeo7yv-7" edge="1">
          <mxGeometry width="50" height="50" relative="1" as="geometry">
            <mxPoint x="120" y="90" as="sourcePoint" />
            <mxPoint x="170" y="40" as="targetPoint" />
          </mxGeometry>
        </mxCell>
        <mxCell id="PWFX1Capweu_nAeeo7yv-9" value="" style="endArrow=none;html=1;rounded=0;entryX=0.395;entryY=1;entryDx=0;entryDy=0;entryPerimeter=0;exitX=0.833;exitY=-0.017;exitDx=0;exitDy=0;exitPerimeter=0;" parent="1" source="PWFX1Capweu_nAeeo7yv-30" target="PWFX1Capweu_nAeeo7yv-6" edge="1">
          <mxGeometry width="50" height="50" relative="1" as="geometry">
            <mxPoint x="150" y="90" as="sourcePoint" />
            <mxPoint x="200" y="40" as="targetPoint" />
          </mxGeometry>
        </mxCell>
        <mxCell id="PWFX1Capweu_nAeeo7yv-10" value="" style="endArrow=none;html=1;rounded=0;entryX=0.628;entryY=1;entryDx=0;entryDy=0;entryPerimeter=0;exitX=0.575;exitY=-0.05;exitDx=0;exitDy=0;exitPerimeter=0;" parent="1" source="PWFX1Capweu_nAeeo7yv-30" target="PWFX1Capweu_nAeeo7yv-4" edge="1">
          <mxGeometry width="50" height="50" relative="1" as="geometry">
            <mxPoint x="110" y="70" as="sourcePoint" />
            <mxPoint x="160" y="20" as="targetPoint" />
          </mxGeometry>
        </mxCell>
        <mxCell id="PWFX1Capweu_nAeeo7yv-11" value="" style="endArrow=none;html=1;rounded=0;entryX=0.35;entryY=-0.033;entryDx=0;entryDy=0;entryPerimeter=0;exitX=0.674;exitY=0.983;exitDx=0;exitDy=0;exitPerimeter=0;" parent="1" source="PWFX1Capweu_nAeeo7yv-5" target="PWFX1Capweu_nAeeo7yv-30" edge="1">
          <mxGeometry width="50" height="50" relative="1" as="geometry">
            <mxPoint x="60" y="110" as="sourcePoint" />
            <mxPoint x="110" y="60" as="targetPoint" />
          </mxGeometry>
        </mxCell>
        <mxCell id="PWFX1Capweu_nAeeo7yv-12" value="CLIENTE&amp;nbsp;" style="rounded=1;whiteSpace=wrap;html=1;" parent="1" vertex="1">
          <mxGeometry x="306" y="270" width="120" height="60" as="geometry" />
        </mxCell>
        <mxCell id="PWFX1Capweu_nAeeo7yv-13" value="PLANIFICA" style="rhombus;whiteSpace=wrap;html=1;rotation=-15;" parent="1" vertex="1">
          <mxGeometry x="110" y="240" width="80" height="80" as="geometry" />
        </mxCell>
        <mxCell id="PWFX1Capweu_nAeeo7yv-15" value="TIENE" style="rhombus;whiteSpace=wrap;html=1;" parent="1" vertex="1">
          <mxGeometry x="-70" y="80" width="80" height="80" as="geometry" />
        </mxCell>
        <mxCell id="PWFX1Capweu_nAeeo7yv-16" value="" style="endArrow=none;html=1;rounded=0;entryX=0;entryY=0.5;entryDx=0;entryDy=0;exitX=1;exitY=0.5;exitDx=0;exitDy=0;" parent="1" source="PWFX1Capweu_nAeeo7yv-1" target="PWFX1Capweu_nAeeo7yv-15" edge="1">
          <mxGeometry width="50" height="50" relative="1" as="geometry">
            <mxPoint x="-190" y="170" as="sourcePoint" />
            <mxPoint x="-140" y="120" as="targetPoint" />
          </mxGeometry>
        </mxCell>
        <mxCell id="PWFX1Capweu_nAeeo7yv-24" value="1:1" style="edgeLabel;html=1;align=center;verticalAlign=middle;resizable=0;points=[];" parent="PWFX1Capweu_nAeeo7yv-16" vertex="1" connectable="0">
          <mxGeometry x="-0.15" y="-3" relative="1" as="geometry">
            <mxPoint as="offset" />
          </mxGeometry>
        </mxCell>
        <mxCell id="PWFX1Capweu_nAeeo7yv-17" value="" style="endArrow=none;html=1;rounded=0;entryX=0;entryY=0.5;entryDx=0;entryDy=0;exitX=1;exitY=0.5;exitDx=0;exitDy=0;" parent="1" source="PWFX1Capweu_nAeeo7yv-15" target="PWFX1Capweu_nAeeo7yv-2" edge="1">
          <mxGeometry width="50" height="50" relative="1" as="geometry">
            <mxPoint x="10" y="180" as="sourcePoint" />
            <mxPoint x="60" y="130" as="targetPoint" />
          </mxGeometry>
        </mxCell>
        <mxCell id="PWFX1Capweu_nAeeo7yv-25" value="1:N" style="edgeLabel;html=1;align=center;verticalAlign=middle;resizable=0;points=[];" parent="PWFX1Capweu_nAeeo7yv-17" vertex="1" connectable="0">
          <mxGeometry x="-0.025" y="-4" relative="1" as="geometry">
            <mxPoint as="offset" />
          </mxGeometry>
        </mxCell>
        <mxCell id="PWFX1Capweu_nAeeo7yv-18" value="PLANIFICACION" style="rounded=1;whiteSpace=wrap;html=1;" parent="1" vertex="1">
          <mxGeometry x="-80" y="260" width="120" height="60" as="geometry" />
        </mxCell>
        <mxCell id="PWFX1Capweu_nAeeo7yv-19" value="" style="endArrow=none;html=1;rounded=0;entryX=0.5;entryY=1;entryDx=0;entryDy=0;exitX=0.5;exitY=0;exitDx=0;exitDy=0;" parent="1" source="PWFX1Capweu_nAeeo7yv-13" target="PWFX1Capweu_nAeeo7yv-2" edge="1">
          <mxGeometry width="50" height="50" relative="1" as="geometry">
            <mxPoint x="120" y="220" as="sourcePoint" />
            <mxPoint x="170" y="170" as="targetPoint" />
          </mxGeometry>
        </mxCell>
        <mxCell id="PWFX1Capweu_nAeeo7yv-42" value="1:1" style="edgeLabel;html=1;align=center;verticalAlign=middle;resizable=0;points=[];" parent="PWFX1Capweu_nAeeo7yv-19" vertex="1" connectable="0">
          <mxGeometry x="0.1556" y="-1" relative="1" as="geometry">
            <mxPoint as="offset" />
          </mxGeometry>
        </mxCell>
        <mxCell id="PWFX1Capweu_nAeeo7yv-20" value="" style="endArrow=none;html=1;rounded=0;entryX=0;entryY=0.5;entryDx=0;entryDy=0;exitX=1;exitY=1;exitDx=0;exitDy=0;" parent="1" source="PWFX1Capweu_nAeeo7yv-13" target="PWFX1Capweu_nAeeo7yv-12" edge="1">
          <mxGeometry width="50" height="50" relative="1" as="geometry">
            <mxPoint x="210" y="310" as="sourcePoint" />
            <mxPoint x="260" y="260" as="targetPoint" />
          </mxGeometry>
        </mxCell>
        <mxCell id="PWFX1Capweu_nAeeo7yv-40" value="1:N" style="edgeLabel;html=1;align=center;verticalAlign=middle;resizable=0;points=[];" parent="PWFX1Capweu_nAeeo7yv-20" vertex="1" connectable="0">
          <mxGeometry x="-0.1379" relative="1" as="geometry">
            <mxPoint as="offset" />
          </mxGeometry>
        </mxCell>
        <mxCell id="PWFX1Capweu_nAeeo7yv-21" value="" style="endArrow=none;html=1;rounded=0;entryX=0;entryY=0.5;entryDx=0;entryDy=0;exitX=1;exitY=0.5;exitDx=0;exitDy=0;" parent="1" source="PWFX1Capweu_nAeeo7yv-18" target="PWFX1Capweu_nAeeo7yv-13" edge="1">
          <mxGeometry width="50" height="50" relative="1" as="geometry">
            <mxPoint x="130" y="400" as="sourcePoint" />
            <mxPoint x="180" y="350" as="targetPoint" />
          </mxGeometry>
        </mxCell>
        <mxCell id="PWFX1Capweu_nAeeo7yv-39" value="1:N" style="edgeLabel;html=1;align=center;verticalAlign=middle;resizable=0;points=[];" parent="PWFX1Capweu_nAeeo7yv-21" vertex="1" connectable="0">
          <mxGeometry x="-0.2571" relative="1" as="geometry">
            <mxPoint as="offset" />
          </mxGeometry>
        </mxCell>
        <mxCell id="PWFX1Capweu_nAeeo7yv-22" value="NOMBRE" style="ellipse;whiteSpace=wrap;html=1;" parent="1" vertex="1">
          <mxGeometry x="-390" y="-20" width="86" height="60" as="geometry" />
        </mxCell>
        <mxCell id="PWFX1Capweu_nAeeo7yv-23" value="" style="endArrow=none;html=1;rounded=0;entryX=0.133;entryY=0;entryDx=0;entryDy=0;entryPerimeter=0;exitX=0.733;exitY=0.917;exitDx=0;exitDy=0;exitPerimeter=0;" parent="1" source="PWFX1Capweu_nAeeo7yv-22" target="PWFX1Capweu_nAeeo7yv-1" edge="1">
          <mxGeometry width="50" height="50" relative="1" as="geometry">
            <mxPoint x="-350" y="120" as="sourcePoint" />
            <mxPoint x="-300" y="70" as="targetPoint" />
          </mxGeometry>
        </mxCell>
        <mxCell id="PWFX1Capweu_nAeeo7yv-26" value="1:N" style="text;html=1;align=center;verticalAlign=middle;resizable=0;points=[];autosize=1;strokeColor=none;fillColor=none;" parent="1" vertex="1">
          <mxGeometry x="-50" y="58" width="40" height="30" as="geometry" />
        </mxCell>
        <mxCell id="PWFX1Capweu_nAeeo7yv-27" value="" style="triangle;whiteSpace=wrap;html=1;rotation=135;" parent="1" vertex="1">
          <mxGeometry x="288" y="110" width="60" height="80" as="geometry" />
        </mxCell>
        <mxCell id="PWFX1Capweu_nAeeo7yv-28" value="" style="endArrow=none;html=1;rounded=0;exitX=1;exitY=0.5;exitDx=0;exitDy=0;" parent="1" source="PWFX1Capweu_nAeeo7yv-2" edge="1">
          <mxGeometry width="50" height="50" relative="1" as="geometry">
            <mxPoint x="220" y="190" as="sourcePoint" />
            <mxPoint x="300" y="170" as="targetPoint" />
          </mxGeometry>
        </mxCell>
        <mxCell id="PWFX1Capweu_nAeeo7yv-37" value="0:1" style="edgeLabel;html=1;align=center;verticalAlign=middle;resizable=0;points=[];" parent="PWFX1Capweu_nAeeo7yv-28" vertex="1" connectable="0">
          <mxGeometry x="-0.1849" y="3" relative="1" as="geometry">
            <mxPoint as="offset" />
          </mxGeometry>
        </mxCell>
        <mxCell id="PWFX1Capweu_nAeeo7yv-29" value="" style="endArrow=none;html=1;rounded=0;exitX=1;exitY=0.5;exitDx=0;exitDy=0;entryX=0.5;entryY=0;entryDx=0;entryDy=0;" parent="1" source="PWFX1Capweu_nAeeo7yv-27" target="PWFX1Capweu_nAeeo7yv-12" edge="1">
          <mxGeometry width="50" height="50" relative="1" as="geometry">
            <mxPoint x="340" y="260" as="sourcePoint" />
            <mxPoint x="390" y="210" as="targetPoint" />
          </mxGeometry>
        </mxCell>
        <mxCell id="PWFX1Capweu_nAeeo7yv-35" value="0:1" style="edgeLabel;html=1;align=center;verticalAlign=middle;resizable=0;points=[];" parent="PWFX1Capweu_nAeeo7yv-29" vertex="1" connectable="0">
          <mxGeometry x="0.4886" y="-2" relative="1" as="geometry">
            <mxPoint as="offset" />
          </mxGeometry>
        </mxCell>
        <mxCell id="PWFX1Capweu_nAeeo7yv-30" value="PERSONA" style="rounded=1;whiteSpace=wrap;html=1;" parent="1" vertex="1">
          <mxGeometry x="460" y="70" width="120" height="60" as="geometry" />
        </mxCell>
        <mxCell id="PWFX1Capweu_nAeeo7yv-31" value="" style="endArrow=none;html=1;rounded=0;entryX=0;entryY=0.5;entryDx=0;entryDy=0;" parent="1" target="PWFX1Capweu_nAeeo7yv-30" edge="1">
          <mxGeometry width="50" height="50" relative="1" as="geometry">
            <mxPoint x="340" y="130" as="sourcePoint" />
            <mxPoint x="390" y="80" as="targetPoint" />
          </mxGeometry>
        </mxCell>
        <mxCell id="PWFX1Capweu_nAeeo7yv-38" value="1:1" style="edgeLabel;html=1;align=center;verticalAlign=middle;resizable=0;points=[];" parent="PWFX1Capweu_nAeeo7yv-31" vertex="1" connectable="0">
          <mxGeometry x="0.0039" y="1" relative="1" as="geometry">
            <mxPoint as="offset" />
          </mxGeometry>
        </mxCell>
        <mxCell id="PWFX1Capweu_nAeeo7yv-33" value="FECHA DE ALTA" style="ellipse;whiteSpace=wrap;html=1;" parent="1" vertex="1">
          <mxGeometry x="477" y="250" width="86" height="60" as="geometry" />
        </mxCell>
        <mxCell id="PWFX1Capweu_nAeeo7yv-34" value="" style="endArrow=none;html=1;rounded=0;exitX=1;exitY=0.5;exitDx=0;exitDy=0;" parent="1" source="PWFX1Capweu_nAeeo7yv-12" target="PWFX1Capweu_nAeeo7yv-33" edge="1">
          <mxGeometry width="50" height="50" relative="1" as="geometry">
            <mxPoint x="460" y="300" as="sourcePoint" />
            <mxPoint x="510" y="250" as="targetPoint" />
          </mxGeometry>
        </mxCell>
        <mxCell id="PWFX1Capweu_nAeeo7yv-43" value="1:N:N" style="text;html=1;align=center;verticalAlign=middle;resizable=0;points=[];autosize=1;strokeColor=none;fillColor=none;" parent="1" vertex="1">
          <mxGeometry x="190" y="250" width="50" height="30" as="geometry" />
        </mxCell>
        <mxCell id="PWFX1Capweu_nAeeo7yv-44" value="FORMADA" style="rhombus;whiteSpace=wrap;html=1;" parent="1" vertex="1">
          <mxGeometry x="-60" y="400" width="80" height="80" as="geometry" />
        </mxCell>
        <mxCell id="PWFX1Capweu_nAeeo7yv-45" value="ENTRENAMIENTO" style="rounded=1;whiteSpace=wrap;html=1;" parent="1" vertex="1">
          <mxGeometry x="-80" y="585" width="120" height="60" as="geometry" />
        </mxCell>
        <mxCell id="PWFX1Capweu_nAeeo7yv-46" value="" style="endArrow=none;html=1;rounded=0;entryX=0.5;entryY=1;entryDx=0;entryDy=0;exitX=0.5;exitY=0;exitDx=0;exitDy=0;" parent="1" source="PWFX1Capweu_nAeeo7yv-44" target="PWFX1Capweu_nAeeo7yv-18" edge="1">
          <mxGeometry width="50" height="50" relative="1" as="geometry">
            <mxPoint x="-80" y="400" as="sourcePoint" />
            <mxPoint x="-30" y="350" as="targetPoint" />
          </mxGeometry>
        </mxCell>
        <mxCell id="PWFX1Capweu_nAeeo7yv-58" value="1:1" style="edgeLabel;html=1;align=center;verticalAlign=middle;resizable=0;points=[];" parent="PWFX1Capweu_nAeeo7yv-46" vertex="1" connectable="0">
          <mxGeometry x="-0.325" y="-2" relative="1" as="geometry">
            <mxPoint as="offset" />
          </mxGeometry>
        </mxCell>
        <mxCell id="PWFX1Capweu_nAeeo7yv-47" value="" style="endArrow=none;html=1;rounded=0;entryX=0.5;entryY=1;entryDx=0;entryDy=0;exitX=0.5;exitY=0;exitDx=0;exitDy=0;" parent="1" source="PWFX1Capweu_nAeeo7yv-45" target="PWFX1Capweu_nAeeo7yv-44" edge="1">
          <mxGeometry width="50" height="50" relative="1" as="geometry">
            <mxPoint x="-70" y="560" as="sourcePoint" />
            <mxPoint x="-20" y="510" as="targetPoint" />
          </mxGeometry>
        </mxCell>
        <mxCell id="PWFX1Capweu_nAeeo7yv-57" value="1:N" style="edgeLabel;html=1;align=center;verticalAlign=middle;resizable=0;points=[];" parent="PWFX1Capweu_nAeeo7yv-47" vertex="1" connectable="0">
          <mxGeometry x="-0.1238" y="1" relative="1" as="geometry">
            <mxPoint as="offset" />
          </mxGeometry>
        </mxCell>
        <mxCell id="PWFX1Capweu_nAeeo7yv-48" value="CODIGO" style="ellipse;whiteSpace=wrap;html=1;" parent="1" vertex="1">
          <mxGeometry x="-146" y="175" width="86" height="60" as="geometry" />
        </mxCell>
        <mxCell id="PWFX1Capweu_nAeeo7yv-49" value="FECHA DE CREACION" style="ellipse;whiteSpace=wrap;html=1;" parent="1" vertex="1">
          <mxGeometry x="-210" y="235" width="86" height="60" as="geometry" />
        </mxCell>
        <mxCell id="PWFX1Capweu_nAeeo7yv-50" value="" style="endArrow=none;html=1;rounded=0;entryX=0.628;entryY=1.033;entryDx=0;entryDy=0;entryPerimeter=0;exitX=0;exitY=0;exitDx=0;exitDy=0;" parent="1" source="PWFX1Capweu_nAeeo7yv-18" target="PWFX1Capweu_nAeeo7yv-48" edge="1">
          <mxGeometry width="50" height="50" relative="1" as="geometry">
            <mxPoint x="-110" y="280" as="sourcePoint" />
            <mxPoint x="-60" y="230" as="targetPoint" />
          </mxGeometry>
        </mxCell>
        <mxCell id="PWFX1Capweu_nAeeo7yv-51" value="" style="endArrow=none;html=1;rounded=0;" parent="1" source="PWFX1Capweu_nAeeo7yv-49" edge="1">
          <mxGeometry width="50" height="50" relative="1" as="geometry">
            <mxPoint x="-130" y="340" as="sourcePoint" />
            <mxPoint x="-80" y="290" as="targetPoint" />
          </mxGeometry>
        </mxCell>
        <mxCell id="PWFX1Capweu_nAeeo7yv-52" value="CODIGO&amp;nbsp;" style="ellipse;whiteSpace=wrap;html=1;" parent="1" vertex="1">
          <mxGeometry x="-190" y="490" width="86" height="60" as="geometry" />
        </mxCell>
        <mxCell id="PWFX1Capweu_nAeeo7yv-53" value="FECHA DE CREACION" style="ellipse;whiteSpace=wrap;html=1;" parent="1" vertex="1">
          <mxGeometry x="-240" y="570" width="86" height="60" as="geometry" />
        </mxCell>
        <mxCell id="PWFX1Capweu_nAeeo7yv-55" value="" style="endArrow=none;html=1;rounded=0;entryX=0.919;entryY=0.75;entryDx=0;entryDy=0;entryPerimeter=0;exitX=0;exitY=0;exitDx=0;exitDy=0;" parent="1" source="PWFX1Capweu_nAeeo7yv-45" target="PWFX1Capweu_nAeeo7yv-52" edge="1">
          <mxGeometry width="50" height="50" relative="1" as="geometry">
            <mxPoint x="-110" y="600" as="sourcePoint" />
            <mxPoint x="-60" y="550" as="targetPoint" />
          </mxGeometry>
        </mxCell>
        <mxCell id="PWFX1Capweu_nAeeo7yv-56" value="" style="endArrow=none;html=1;rounded=0;entryX=-0.033;entryY=0.383;entryDx=0;entryDy=0;entryPerimeter=0;exitX=1;exitY=0.5;exitDx=0;exitDy=0;" parent="1" source="PWFX1Capweu_nAeeo7yv-53" target="PWFX1Capweu_nAeeo7yv-45" edge="1">
          <mxGeometry width="50" height="50" relative="1" as="geometry">
            <mxPoint x="-120" y="660" as="sourcePoint" />
            <mxPoint x="-70" y="610" as="targetPoint" />
          </mxGeometry>
        </mxCell>
        <mxCell id="PWFX1Capweu_nAeeo7yv-59" value="1:N" style="text;html=1;align=center;verticalAlign=middle;resizable=0;points=[];autosize=1;strokeColor=none;fillColor=none;" parent="1" vertex="1">
          <mxGeometry x="20" y="425" width="40" height="30" as="geometry" />
        </mxCell>
        <mxCell id="PWFX1Capweu_nAeeo7yv-60" value="FORMADO" style="rhombus;whiteSpace=wrap;html=1;" parent="1" vertex="1">
          <mxGeometry x="140" y="575" width="80" height="80" as="geometry" />
        </mxCell>
        <mxCell id="PWFX1Capweu_nAeeo7yv-61" value="EJERCICIO" style="rounded=1;whiteSpace=wrap;html=1;" parent="1" vertex="1">
          <mxGeometry x="320" y="585" width="120" height="60" as="geometry" />
        </mxCell>
        <mxCell id="PWFX1Capweu_nAeeo7yv-62" value="" style="endArrow=none;html=1;rounded=0;entryX=0;entryY=0.5;entryDx=0;entryDy=0;exitX=1;exitY=0.5;exitDx=0;exitDy=0;" parent="1" source="PWFX1Capweu_nAeeo7yv-45" target="PWFX1Capweu_nAeeo7yv-60" edge="1">
          <mxGeometry width="50" height="50" relative="1" as="geometry">
            <mxPoint x="70" y="650" as="sourcePoint" />
            <mxPoint x="120" y="600" as="targetPoint" />
          </mxGeometry>
        </mxCell>
        <mxCell id="PWFX1Capweu_nAeeo7yv-80" value="1:N" style="edgeLabel;html=1;align=center;verticalAlign=middle;resizable=0;points=[];" parent="PWFX1Capweu_nAeeo7yv-62" vertex="1" connectable="0">
          <mxGeometry x="0.14" y="1" relative="1" as="geometry">
            <mxPoint as="offset" />
          </mxGeometry>
        </mxCell>
        <mxCell id="PWFX1Capweu_nAeeo7yv-63" value="" style="endArrow=none;html=1;rounded=0;entryX=0;entryY=0.5;entryDx=0;entryDy=0;exitX=1;exitY=0.5;exitDx=0;exitDy=0;" parent="1" source="PWFX1Capweu_nAeeo7yv-60" target="PWFX1Capweu_nAeeo7yv-61" edge="1">
          <mxGeometry width="50" height="50" relative="1" as="geometry">
            <mxPoint x="210" y="650" as="sourcePoint" />
            <mxPoint x="260" y="600" as="targetPoint" />
          </mxGeometry>
        </mxCell>
        <mxCell id="PWFX1Capweu_nAeeo7yv-76" value="1:N" style="edgeLabel;html=1;align=center;verticalAlign=middle;resizable=0;points=[];" parent="PWFX1Capweu_nAeeo7yv-63" vertex="1" connectable="0">
          <mxGeometry x="-0.2" relative="1" as="geometry">
            <mxPoint as="offset" />
          </mxGeometry>
        </mxCell>
        <mxCell id="PWFX1Capweu_nAeeo7yv-64" value="NUMERO DE SERIES" style="ellipse;whiteSpace=wrap;html=1;" parent="1" vertex="1">
          <mxGeometry x="390" y="460" width="86" height="60" as="geometry" />
        </mxCell>
        <mxCell id="PWFX1Capweu_nAeeo7yv-65" value="NUMERO DE REPETICIONES" style="ellipse;whiteSpace=wrap;html=1;" parent="1" vertex="1">
          <mxGeometry x="486" y="510" width="86" height="60" as="geometry" />
        </mxCell>
        <mxCell id="PWFX1Capweu_nAeeo7yv-66" value="NOMBRE" style="ellipse;whiteSpace=wrap;html=1;" parent="1" vertex="1">
          <mxGeometry x="288" y="480" width="86" height="60" as="geometry" />
        </mxCell>
        <mxCell id="PWFX1Capweu_nAeeo7yv-67" value="" style="endArrow=none;html=1;rounded=0;entryX=0.791;entryY=1.017;entryDx=0;entryDy=0;entryPerimeter=0;exitX=0.408;exitY=-0.033;exitDx=0;exitDy=0;exitPerimeter=0;" parent="1" source="PWFX1Capweu_nAeeo7yv-61" target="PWFX1Capweu_nAeeo7yv-66" edge="1">
          <mxGeometry width="50" height="50" relative="1" as="geometry">
            <mxPoint x="320" y="600" as="sourcePoint" />
            <mxPoint x="370" y="550" as="targetPoint" />
          </mxGeometry>
        </mxCell>
        <mxCell id="PWFX1Capweu_nAeeo7yv-68" value="" style="endArrow=none;html=1;rounded=0;entryX=0.5;entryY=1;entryDx=0;entryDy=0;exitX=0.658;exitY=-0.033;exitDx=0;exitDy=0;exitPerimeter=0;" parent="1" source="PWFX1Capweu_nAeeo7yv-61" target="PWFX1Capweu_nAeeo7yv-64" edge="1">
          <mxGeometry width="50" height="50" relative="1" as="geometry">
            <mxPoint x="400" y="580" as="sourcePoint" />
            <mxPoint x="460" y="540" as="targetPoint" />
          </mxGeometry>
        </mxCell>
        <mxCell id="PWFX1Capweu_nAeeo7yv-69" value="" style="endArrow=none;html=1;rounded=0;entryX=0;entryY=1;entryDx=0;entryDy=0;exitX=1;exitY=0;exitDx=0;exitDy=0;" parent="1" source="PWFX1Capweu_nAeeo7yv-61" target="PWFX1Capweu_nAeeo7yv-65" edge="1">
          <mxGeometry width="50" height="50" relative="1" as="geometry">
            <mxPoint x="450" y="620" as="sourcePoint" />
            <mxPoint x="500" y="570" as="targetPoint" />
          </mxGeometry>
        </mxCell>
        <mxCell id="PWFX1Capweu_nAeeo7yv-70" value="UTILIZA&amp;nbsp;" style="rhombus;whiteSpace=wrap;html=1;" parent="1" vertex="1">
          <mxGeometry x="340" y="710" width="80" height="80" as="geometry" />
        </mxCell>
        <mxCell id="PWFX1Capweu_nAeeo7yv-71" value="MATERIAL" style="rounded=1;whiteSpace=wrap;html=1;" parent="1" vertex="1">
          <mxGeometry x="320" y="880" width="120" height="60" as="geometry" />
        </mxCell>
        <mxCell id="PWFX1Capweu_nAeeo7yv-72" value="" style="endArrow=none;html=1;rounded=0;entryX=0.5;entryY=1;entryDx=0;entryDy=0;exitX=0.5;exitY=0;exitDx=0;exitDy=0;" parent="1" source="PWFX1Capweu_nAeeo7yv-70" target="PWFX1Capweu_nAeeo7yv-61" edge="1">
          <mxGeometry width="50" height="50" relative="1" as="geometry">
            <mxPoint x="270" y="730" as="sourcePoint" />
            <mxPoint x="320" y="680" as="targetPoint" />
          </mxGeometry>
        </mxCell>
        <mxCell id="PWFX1Capweu_nAeeo7yv-82" value="1:N" style="edgeLabel;html=1;align=center;verticalAlign=middle;resizable=0;points=[];" parent="PWFX1Capweu_nAeeo7yv-72" vertex="1" connectable="0">
          <mxGeometry x="0.2615" relative="1" as="geometry">
            <mxPoint as="offset" />
          </mxGeometry>
        </mxCell>
        <mxCell id="PWFX1Capweu_nAeeo7yv-73" value="" style="endArrow=none;html=1;rounded=0;entryX=0.5;entryY=1;entryDx=0;entryDy=0;exitX=0.5;exitY=0;exitDx=0;exitDy=0;" parent="1" source="PWFX1Capweu_nAeeo7yv-71" target="PWFX1Capweu_nAeeo7yv-70" edge="1">
          <mxGeometry width="50" height="50" relative="1" as="geometry">
            <mxPoint x="340" y="870" as="sourcePoint" />
            <mxPoint x="390" y="820" as="targetPoint" />
          </mxGeometry>
        </mxCell>
        <mxCell id="PWFX1Capweu_nAeeo7yv-85" value="O:N" style="edgeLabel;html=1;align=center;verticalAlign=middle;resizable=0;points=[];" parent="PWFX1Capweu_nAeeo7yv-73" vertex="1" connectable="0">
          <mxGeometry x="-0.4444" relative="1" as="geometry">
            <mxPoint as="offset" />
          </mxGeometry>
        </mxCell>
        <mxCell id="PWFX1Capweu_nAeeo7yv-74" value="NOMBRE" style="ellipse;whiteSpace=wrap;html=1;" parent="1" vertex="1">
          <mxGeometry x="154" y="820" width="86" height="60" as="geometry" />
        </mxCell>
        <mxCell id="PWFX1Capweu_nAeeo7yv-75" value="" style="endArrow=none;html=1;rounded=0;entryX=0;entryY=0.25;entryDx=0;entryDy=0;exitX=0.977;exitY=0.733;exitDx=0;exitDy=0;exitPerimeter=0;" parent="1" source="PWFX1Capweu_nAeeo7yv-74" target="PWFX1Capweu_nAeeo7yv-71" edge="1">
          <mxGeometry width="50" height="50" relative="1" as="geometry">
            <mxPoint x="250" y="940" as="sourcePoint" />
            <mxPoint x="300" y="890" as="targetPoint" />
          </mxGeometry>
        </mxCell>
        <mxCell id="PWFX1Capweu_nAeeo7yv-78" value="N:N" style="text;html=1;align=center;verticalAlign=middle;resizable=0;points=[];autosize=1;strokeColor=none;fillColor=none;" parent="1" vertex="1">
          <mxGeometry x="160" y="548" width="40" height="30" as="geometry" />
        </mxCell>
        <mxCell id="PWFX1Capweu_nAeeo7yv-84" value="O:N" style="text;html=1;align=center;verticalAlign=middle;resizable=0;points=[];autosize=1;strokeColor=none;fillColor=none;" parent="1" vertex="1">
          <mxGeometry x="420" y="735" width="40" height="30" as="geometry" />
        </mxCell>
        <mxCell id="aY_WkBI7yTuw5ruixPkG-18" value="GYM" style="shape=table;startSize=30;container=1;collapsible=0;childLayout=tableLayout;strokeColor=default;fontSize=16;" vertex="1" parent="1">
          <mxGeometry x="740" y="-130" width="180" height="130" as="geometry" />
        </mxCell>
        <mxCell id="aY_WkBI7yTuw5ruixPkG-19" value="" style="shape=tableRow;horizontal=0;startSize=0;swimlaneHead=0;swimlaneBody=0;strokeColor=inherit;top=0;left=0;bottom=0;right=0;collapsible=0;dropTarget=0;fillColor=none;points=[[0,0.5],[1,0.5]];portConstraint=eastwest;fontSize=16;" vertex="1" parent="aY_WkBI7yTuw5ruixPkG-18">
          <mxGeometry y="30" width="180" height="100" as="geometry" />
        </mxCell>
        <mxCell id="aY_WkBI7yTuw5ruixPkG-20" value="PK.NOMBRE" style="shape=partialRectangle;html=1;whiteSpace=wrap;connectable=0;strokeColor=inherit;overflow=hidden;fillColor=none;top=0;left=0;bottom=0;right=0;pointerEvents=1;fontSize=16;" vertex="1" parent="aY_WkBI7yTuw5ruixPkG-19">
          <mxGeometry width="180" height="100" as="geometry">
            <mxRectangle width="180" height="100" as="alternateBounds" />
          </mxGeometry>
        </mxCell>
        <mxCell id="aY_WkBI7yTuw5ruixPkG-61" value="ENTRENADORÂ " style="shape=table;startSize=30;container=1;collapsible=0;childLayout=tableLayout;strokeColor=default;fontSize=16;" vertex="1" parent="1">
          <mxGeometry x="1010" y="-130" width="540" height="130" as="geometry" />
        </mxCell>
        <mxCell id="aY_WkBI7yTuw5ruixPkG-62" value="" style="shape=tableRow;horizontal=0;startSize=0;swimlaneHead=0;swimlaneBody=0;strokeColor=inherit;top=0;left=0;bottom=0;right=0;collapsible=0;dropTarget=0;fillColor=none;points=[[0,0.5],[1,0.5]];portConstraint=eastwest;fontSize=16;" vertex="1" parent="aY_WkBI7yTuw5ruixPkG-61">
          <mxGeometry y="30" width="540" height="100" as="geometry" />
        </mxCell>
        <mxCell id="aY_WkBI7yTuw5ruixPkG-127" value="PK.SALARIO" style="shape=partialRectangle;html=1;whiteSpace=wrap;connectable=0;strokeColor=inherit;overflow=hidden;fillColor=none;top=0;left=0;bottom=0;right=0;pointerEvents=1;fontSize=16;" vertex="1" parent="aY_WkBI7yTuw5ruixPkG-62">
          <mxGeometry width="180" height="100" as="geometry">
            <mxRectangle width="180" height="100" as="alternateBounds" />
          </mxGeometry>
        </mxCell>
        <mxCell id="aY_WkBI7yTuw5ruixPkG-63" value="FK.NOMBREGYM" style="shape=partialRectangle;html=1;whiteSpace=wrap;connectable=0;strokeColor=inherit;overflow=hidden;fillColor=none;top=0;left=0;bottom=0;right=0;pointerEvents=1;fontSize=16;" vertex="1" parent="aY_WkBI7yTuw5ruixPkG-62">
          <mxGeometry x="180" width="180" height="100" as="geometry">
            <mxRectangle width="180" height="100" as="alternateBounds" />
          </mxGeometry>
        </mxCell>
        <mxCell id="aY_WkBI7yTuw5ruixPkG-129" value="FK.DNPERSONA" style="shape=partialRectangle;html=1;whiteSpace=wrap;connectable=0;strokeColor=inherit;overflow=hidden;fillColor=none;top=0;left=0;bottom=0;right=0;pointerEvents=1;fontSize=16;" vertex="1" parent="aY_WkBI7yTuw5ruixPkG-62">
          <mxGeometry x="360" width="180" height="100" as="geometry">
            <mxRectangle width="180" height="100" as="alternateBounds" />
          </mxGeometry>
        </mxCell>
        <mxCell id="aY_WkBI7yTuw5ruixPkG-64" value="PERSONA" style="shape=table;startSize=30;container=1;collapsible=0;childLayout=tableLayout;strokeColor=default;fontSize=16;" vertex="1" parent="1">
          <mxGeometry x="1654" y="-120" width="260" height="150" as="geometry" />
        </mxCell>
        <mxCell id="aY_WkBI7yTuw5ruixPkG-65" value="" style="shape=tableRow;horizontal=0;startSize=0;swimlaneHead=0;swimlaneBody=0;strokeColor=inherit;top=0;left=0;bottom=0;right=0;collapsible=0;dropTarget=0;fillColor=none;points=[[0,0.5],[1,0.5]];portConstraint=eastwest;fontSize=16;" vertex="1" parent="aY_WkBI7yTuw5ruixPkG-64">
          <mxGeometry y="30" width="260" height="40" as="geometry" />
        </mxCell>
        <mxCell id="aY_WkBI7yTuw5ruixPkG-66" value="PK.DNI" style="shape=partialRectangle;html=1;whiteSpace=wrap;connectable=0;strokeColor=inherit;overflow=hidden;fillColor=none;top=0;left=0;bottom=0;right=0;pointerEvents=1;fontSize=16;" vertex="1" parent="aY_WkBI7yTuw5ruixPkG-65">
          <mxGeometry width="86" height="40" as="geometry">
            <mxRectangle width="86" height="40" as="alternateBounds" />
          </mxGeometry>
        </mxCell>
        <mxCell id="aY_WkBI7yTuw5ruixPkG-67" value="NOMBRE&lt;span style=&quot;white-space: pre;&quot;&gt;&#x9;&lt;/span&gt;" style="shape=partialRectangle;html=1;whiteSpace=wrap;connectable=0;strokeColor=inherit;overflow=hidden;fillColor=none;top=0;left=0;bottom=0;right=0;pointerEvents=1;fontSize=16;" vertex="1" parent="aY_WkBI7yTuw5ruixPkG-65">
          <mxGeometry x="86" width="88" height="40" as="geometry">
            <mxRectangle width="88" height="40" as="alternateBounds" />
          </mxGeometry>
        </mxCell>
        <mxCell id="aY_WkBI7yTuw5ruixPkG-68" value="PRIMER APELLDO" style="shape=partialRectangle;html=1;whiteSpace=wrap;connectable=0;strokeColor=inherit;overflow=hidden;fillColor=none;top=0;left=0;bottom=0;right=0;pointerEvents=1;fontSize=16;" vertex="1" parent="aY_WkBI7yTuw5ruixPkG-65">
          <mxGeometry x="174" width="86" height="40" as="geometry">
            <mxRectangle width="86" height="40" as="alternateBounds" />
          </mxGeometry>
        </mxCell>
        <mxCell id="aY_WkBI7yTuw5ruixPkG-69" value="" style="shape=tableRow;horizontal=0;startSize=0;swimlaneHead=0;swimlaneBody=0;strokeColor=inherit;top=0;left=0;bottom=0;right=0;collapsible=0;dropTarget=0;fillColor=none;points=[[0,0.5],[1,0.5]];portConstraint=eastwest;fontSize=16;" vertex="1" parent="aY_WkBI7yTuw5ruixPkG-64">
          <mxGeometry y="70" width="260" height="40" as="geometry" />
        </mxCell>
        <mxCell id="aY_WkBI7yTuw5ruixPkG-70" value="" style="shape=partialRectangle;html=1;whiteSpace=wrap;connectable=0;strokeColor=inherit;overflow=hidden;fillColor=none;top=0;left=0;bottom=0;right=0;pointerEvents=1;fontSize=16;" vertex="1" parent="aY_WkBI7yTuw5ruixPkG-69">
          <mxGeometry width="86" height="40" as="geometry">
            <mxRectangle width="86" height="40" as="alternateBounds" />
          </mxGeometry>
        </mxCell>
        <mxCell id="aY_WkBI7yTuw5ruixPkG-71" value="" style="shape=partialRectangle;html=1;whiteSpace=wrap;connectable=0;strokeColor=inherit;overflow=hidden;fillColor=none;top=0;left=0;bottom=0;right=0;pointerEvents=1;fontSize=16;" vertex="1" parent="aY_WkBI7yTuw5ruixPkG-69">
          <mxGeometry x="86" width="88" height="40" as="geometry">
            <mxRectangle width="88" height="40" as="alternateBounds" />
          </mxGeometry>
        </mxCell>
        <mxCell id="aY_WkBI7yTuw5ruixPkG-72" value="" style="shape=partialRectangle;html=1;whiteSpace=wrap;connectable=0;strokeColor=inherit;overflow=hidden;fillColor=none;top=0;left=0;bottom=0;right=0;pointerEvents=1;fontSize=16;" vertex="1" parent="aY_WkBI7yTuw5ruixPkG-69">
          <mxGeometry x="174" width="86" height="40" as="geometry">
            <mxRectangle width="86" height="40" as="alternateBounds" />
          </mxGeometry>
        </mxCell>
        <mxCell id="aY_WkBI7yTuw5ruixPkG-73" value="" style="shape=tableRow;horizontal=0;startSize=0;swimlaneHead=0;swimlaneBody=0;strokeColor=inherit;top=0;left=0;bottom=0;right=0;collapsible=0;dropTarget=0;fillColor=none;points=[[0,0.5],[1,0.5]];portConstraint=eastwest;fontSize=16;" vertex="1" parent="aY_WkBI7yTuw5ruixPkG-64">
          <mxGeometry y="110" width="260" height="40" as="geometry" />
        </mxCell>
        <mxCell id="aY_WkBI7yTuw5ruixPkG-74" value="" style="shape=partialRectangle;html=1;whiteSpace=wrap;connectable=0;strokeColor=inherit;overflow=hidden;fillColor=none;top=0;left=0;bottom=0;right=0;pointerEvents=1;fontSize=16;" vertex="1" parent="aY_WkBI7yTuw5ruixPkG-73">
          <mxGeometry width="86" height="40" as="geometry">
            <mxRectangle width="86" height="40" as="alternateBounds" />
          </mxGeometry>
        </mxCell>
        <mxCell id="aY_WkBI7yTuw5ruixPkG-75" value="" style="shape=partialRectangle;html=1;whiteSpace=wrap;connectable=0;strokeColor=inherit;overflow=hidden;fillColor=none;top=0;left=0;bottom=0;right=0;pointerEvents=1;fontSize=16;" vertex="1" parent="aY_WkBI7yTuw5ruixPkG-73">
          <mxGeometry x="86" width="88" height="40" as="geometry">
            <mxRectangle width="88" height="40" as="alternateBounds" />
          </mxGeometry>
        </mxCell>
        <mxCell id="aY_WkBI7yTuw5ruixPkG-76" value="" style="shape=partialRectangle;html=1;whiteSpace=wrap;connectable=0;strokeColor=inherit;overflow=hidden;fillColor=none;top=0;left=0;bottom=0;right=0;pointerEvents=1;fontSize=16;" vertex="1" parent="aY_WkBI7yTuw5ruixPkG-73">
          <mxGeometry x="174" width="86" height="40" as="geometry">
            <mxRectangle width="86" height="40" as="alternateBounds" />
          </mxGeometry>
        </mxCell>
        <mxCell id="aY_WkBI7yTuw5ruixPkG-77" value="CLIENTE" style="shape=table;startSize=30;container=1;collapsible=0;childLayout=tableLayout;strokeColor=default;fontSize=16;" vertex="1" parent="1">
          <mxGeometry x="670" y="240" width="360" height="130" as="geometry" />
        </mxCell>
        <mxCell id="aY_WkBI7yTuw5ruixPkG-78" value="" style="shape=tableRow;horizontal=0;startSize=0;swimlaneHead=0;swimlaneBody=0;strokeColor=inherit;top=0;left=0;bottom=0;right=0;collapsible=0;dropTarget=0;fillColor=none;points=[[0,0.5],[1,0.5]];portConstraint=eastwest;fontSize=16;" vertex="1" parent="aY_WkBI7yTuw5ruixPkG-77">
          <mxGeometry y="30" width="360" height="100" as="geometry" />
        </mxCell>
        <mxCell id="aY_WkBI7yTuw5ruixPkG-79" value="PK.FECHA DE ALTA" style="shape=partialRectangle;html=1;whiteSpace=wrap;connectable=0;strokeColor=inherit;overflow=hidden;fillColor=none;top=0;left=0;bottom=0;right=0;pointerEvents=1;fontSize=16;" vertex="1" parent="aY_WkBI7yTuw5ruixPkG-78">
          <mxGeometry width="180" height="100" as="geometry">
            <mxRectangle width="180" height="100" as="alternateBounds" />
          </mxGeometry>
        </mxCell>
        <mxCell id="aY_WkBI7yTuw5ruixPkG-130" value="FK.DNPERSONA" style="shape=partialRectangle;html=1;whiteSpace=wrap;connectable=0;strokeColor=inherit;overflow=hidden;fillColor=none;top=0;left=0;bottom=0;right=0;pointerEvents=1;fontSize=16;" vertex="1" parent="aY_WkBI7yTuw5ruixPkG-78">
          <mxGeometry x="180" width="180" height="100" as="geometry">
            <mxRectangle width="180" height="100" as="alternateBounds" />
          </mxGeometry>
        </mxCell>
        <mxCell id="aY_WkBI7yTuw5ruixPkG-80" value="PLANIFICACION" style="shape=table;startSize=30;container=1;collapsible=0;childLayout=tableLayout;strokeColor=default;fontSize=16;" vertex="1" parent="1">
          <mxGeometry x="1180" y="220" width="229" height="150" as="geometry" />
        </mxCell>
        <mxCell id="aY_WkBI7yTuw5ruixPkG-81" value="" style="shape=tableRow;horizontal=0;startSize=0;swimlaneHead=0;swimlaneBody=0;strokeColor=inherit;top=0;left=0;bottom=0;right=0;collapsible=0;dropTarget=0;fillColor=none;points=[[0,0.5],[1,0.5]];portConstraint=eastwest;fontSize=16;" vertex="1" parent="aY_WkBI7yTuw5ruixPkG-80">
          <mxGeometry y="30" width="229" height="40" as="geometry" />
        </mxCell>
        <mxCell id="aY_WkBI7yTuw5ruixPkG-82" value="PK.CODIGO" style="shape=partialRectangle;html=1;whiteSpace=wrap;connectable=0;strokeColor=inherit;overflow=hidden;fillColor=none;top=0;left=0;bottom=0;right=0;pointerEvents=1;fontSize=16;" vertex="1" parent="aY_WkBI7yTuw5ruixPkG-81">
          <mxGeometry width="113" height="40" as="geometry">
            <mxRectangle width="113" height="40" as="alternateBounds" />
          </mxGeometry>
        </mxCell>
        <mxCell id="aY_WkBI7yTuw5ruixPkG-83" value="FECHA DE CREACION" style="shape=partialRectangle;html=1;whiteSpace=wrap;connectable=0;strokeColor=inherit;overflow=hidden;fillColor=none;top=0;left=0;bottom=0;right=0;pointerEvents=1;fontSize=16;" vertex="1" parent="aY_WkBI7yTuw5ruixPkG-81">
          <mxGeometry x="113" width="116" height="40" as="geometry">
            <mxRectangle width="116" height="40" as="alternateBounds" />
          </mxGeometry>
        </mxCell>
        <mxCell id="aY_WkBI7yTuw5ruixPkG-85" value="" style="shape=tableRow;horizontal=0;startSize=0;swimlaneHead=0;swimlaneBody=0;strokeColor=inherit;top=0;left=0;bottom=0;right=0;collapsible=0;dropTarget=0;fillColor=none;points=[[0,0.5],[1,0.5]];portConstraint=eastwest;fontSize=16;" vertex="1" parent="aY_WkBI7yTuw5ruixPkG-80">
          <mxGeometry y="70" width="229" height="40" as="geometry" />
        </mxCell>
        <mxCell id="aY_WkBI7yTuw5ruixPkG-86" value="" style="shape=partialRectangle;html=1;whiteSpace=wrap;connectable=0;strokeColor=inherit;overflow=hidden;fillColor=none;top=0;left=0;bottom=0;right=0;pointerEvents=1;fontSize=16;" vertex="1" parent="aY_WkBI7yTuw5ruixPkG-85">
          <mxGeometry width="113" height="40" as="geometry">
            <mxRectangle width="113" height="40" as="alternateBounds" />
          </mxGeometry>
        </mxCell>
        <mxCell id="aY_WkBI7yTuw5ruixPkG-87" value="" style="shape=partialRectangle;html=1;whiteSpace=wrap;connectable=0;strokeColor=inherit;overflow=hidden;fillColor=none;top=0;left=0;bottom=0;right=0;pointerEvents=1;fontSize=16;" vertex="1" parent="aY_WkBI7yTuw5ruixPkG-85">
          <mxGeometry x="113" width="116" height="40" as="geometry">
            <mxRectangle width="116" height="40" as="alternateBounds" />
          </mxGeometry>
        </mxCell>
        <mxCell id="aY_WkBI7yTuw5ruixPkG-89" value="" style="shape=tableRow;horizontal=0;startSize=0;swimlaneHead=0;swimlaneBody=0;strokeColor=inherit;top=0;left=0;bottom=0;right=0;collapsible=0;dropTarget=0;fillColor=none;points=[[0,0.5],[1,0.5]];portConstraint=eastwest;fontSize=16;" vertex="1" parent="aY_WkBI7yTuw5ruixPkG-80">
          <mxGeometry y="110" width="229" height="40" as="geometry" />
        </mxCell>
        <mxCell id="aY_WkBI7yTuw5ruixPkG-90" value="" style="shape=partialRectangle;html=1;whiteSpace=wrap;connectable=0;strokeColor=inherit;overflow=hidden;fillColor=none;top=0;left=0;bottom=0;right=0;pointerEvents=1;fontSize=16;" vertex="1" parent="aY_WkBI7yTuw5ruixPkG-89">
          <mxGeometry width="113" height="40" as="geometry">
            <mxRectangle width="113" height="40" as="alternateBounds" />
          </mxGeometry>
        </mxCell>
        <mxCell id="aY_WkBI7yTuw5ruixPkG-91" value="" style="shape=partialRectangle;html=1;whiteSpace=wrap;connectable=0;strokeColor=inherit;overflow=hidden;fillColor=none;top=0;left=0;bottom=0;right=0;pointerEvents=1;fontSize=16;" vertex="1" parent="aY_WkBI7yTuw5ruixPkG-89">
          <mxGeometry x="113" width="116" height="40" as="geometry">
            <mxRectangle width="116" height="40" as="alternateBounds" />
          </mxGeometry>
        </mxCell>
        <mxCell id="aY_WkBI7yTuw5ruixPkG-99" value="ENTRENAMIENTO" style="shape=table;startSize=30;container=1;collapsible=0;childLayout=tableLayout;strokeColor=default;fontSize=16;" vertex="1" parent="1">
          <mxGeometry x="1520" y="200" width="719" height="190" as="geometry" />
        </mxCell>
        <mxCell id="aY_WkBI7yTuw5ruixPkG-100" value="" style="shape=tableRow;horizontal=0;startSize=0;swimlaneHead=0;swimlaneBody=0;strokeColor=inherit;top=0;left=0;bottom=0;right=0;collapsible=0;dropTarget=0;fillColor=none;points=[[0,0.5],[1,0.5]];portConstraint=eastwest;fontSize=16;" vertex="1" parent="aY_WkBI7yTuw5ruixPkG-99">
          <mxGeometry y="30" width="719" height="54" as="geometry" />
        </mxCell>
        <mxCell id="aY_WkBI7yTuw5ruixPkG-101" value="PK.CODIGO" style="shape=partialRectangle;html=1;whiteSpace=wrap;connectable=0;strokeColor=inherit;overflow=hidden;fillColor=none;top=0;left=0;bottom=0;right=0;pointerEvents=1;fontSize=16;" vertex="1" parent="aY_WkBI7yTuw5ruixPkG-100">
          <mxGeometry width="236" height="54" as="geometry">
            <mxRectangle width="236" height="54" as="alternateBounds" />
          </mxGeometry>
        </mxCell>
        <mxCell id="aY_WkBI7yTuw5ruixPkG-102" value="FECHA DE CREACION" style="shape=partialRectangle;html=1;whiteSpace=wrap;connectable=0;strokeColor=inherit;overflow=hidden;fillColor=none;top=0;left=0;bottom=0;right=0;pointerEvents=1;fontSize=16;" vertex="1" parent="aY_WkBI7yTuw5ruixPkG-100">
          <mxGeometry x="236" width="241" height="54" as="geometry">
            <mxRectangle width="241" height="54" as="alternateBounds" />
          </mxGeometry>
        </mxCell>
        <mxCell id="aY_WkBI7yTuw5ruixPkG-134" value="FK.CODIGOPLANIFICACION" style="shape=partialRectangle;html=1;whiteSpace=wrap;connectable=0;strokeColor=inherit;overflow=hidden;fillColor=none;top=0;left=0;bottom=0;right=0;pointerEvents=1;fontSize=16;" vertex="1" parent="aY_WkBI7yTuw5ruixPkG-100">
          <mxGeometry x="477" width="242" height="54" as="geometry">
            <mxRectangle width="242" height="54" as="alternateBounds" />
          </mxGeometry>
        </mxCell>
        <mxCell id="aY_WkBI7yTuw5ruixPkG-103" value="" style="shape=tableRow;horizontal=0;startSize=0;swimlaneHead=0;swimlaneBody=0;strokeColor=inherit;top=0;left=0;bottom=0;right=0;collapsible=0;dropTarget=0;fillColor=none;points=[[0,0.5],[1,0.5]];portConstraint=eastwest;fontSize=16;" vertex="1" parent="aY_WkBI7yTuw5ruixPkG-99">
          <mxGeometry y="84" width="719" height="52" as="geometry" />
        </mxCell>
        <mxCell id="aY_WkBI7yTuw5ruixPkG-104" value="" style="shape=partialRectangle;html=1;whiteSpace=wrap;connectable=0;strokeColor=inherit;overflow=hidden;fillColor=none;top=0;left=0;bottom=0;right=0;pointerEvents=1;fontSize=16;" vertex="1" parent="aY_WkBI7yTuw5ruixPkG-103">
          <mxGeometry width="236" height="52" as="geometry">
            <mxRectangle width="236" height="52" as="alternateBounds" />
          </mxGeometry>
        </mxCell>
        <mxCell id="aY_WkBI7yTuw5ruixPkG-105" value="" style="shape=partialRectangle;html=1;whiteSpace=wrap;connectable=0;strokeColor=inherit;overflow=hidden;fillColor=none;top=0;left=0;bottom=0;right=0;pointerEvents=1;fontSize=16;" vertex="1" parent="aY_WkBI7yTuw5ruixPkG-103">
          <mxGeometry x="236" width="241" height="52" as="geometry">
            <mxRectangle width="241" height="52" as="alternateBounds" />
          </mxGeometry>
        </mxCell>
        <mxCell id="aY_WkBI7yTuw5ruixPkG-135" style="shape=partialRectangle;html=1;whiteSpace=wrap;connectable=0;strokeColor=inherit;overflow=hidden;fillColor=none;top=0;left=0;bottom=0;right=0;pointerEvents=1;fontSize=16;" vertex="1" parent="aY_WkBI7yTuw5ruixPkG-103">
          <mxGeometry x="477" width="242" height="52" as="geometry">
            <mxRectangle width="242" height="52" as="alternateBounds" />
          </mxGeometry>
        </mxCell>
        <mxCell id="aY_WkBI7yTuw5ruixPkG-106" value="" style="shape=tableRow;horizontal=0;startSize=0;swimlaneHead=0;swimlaneBody=0;strokeColor=inherit;top=0;left=0;bottom=0;right=0;collapsible=0;dropTarget=0;fillColor=none;points=[[0,0.5],[1,0.5]];portConstraint=eastwest;fontSize=16;" vertex="1" parent="aY_WkBI7yTuw5ruixPkG-99">
          <mxGeometry y="136" width="719" height="54" as="geometry" />
        </mxCell>
        <mxCell id="aY_WkBI7yTuw5ruixPkG-107" value="" style="shape=partialRectangle;html=1;whiteSpace=wrap;connectable=0;strokeColor=inherit;overflow=hidden;fillColor=none;top=0;left=0;bottom=0;right=0;pointerEvents=1;fontSize=16;" vertex="1" parent="aY_WkBI7yTuw5ruixPkG-106">
          <mxGeometry width="236" height="54" as="geometry">
            <mxRectangle width="236" height="54" as="alternateBounds" />
          </mxGeometry>
        </mxCell>
        <mxCell id="aY_WkBI7yTuw5ruixPkG-108" value="" style="shape=partialRectangle;html=1;whiteSpace=wrap;connectable=0;strokeColor=inherit;overflow=hidden;fillColor=none;top=0;left=0;bottom=0;right=0;pointerEvents=1;fontSize=16;" vertex="1" parent="aY_WkBI7yTuw5ruixPkG-106">
          <mxGeometry x="236" width="241" height="54" as="geometry">
            <mxRectangle width="241" height="54" as="alternateBounds" />
          </mxGeometry>
        </mxCell>
        <mxCell id="aY_WkBI7yTuw5ruixPkG-136" style="shape=partialRectangle;html=1;whiteSpace=wrap;connectable=0;strokeColor=inherit;overflow=hidden;fillColor=none;top=0;left=0;bottom=0;right=0;pointerEvents=1;fontSize=16;" vertex="1" parent="aY_WkBI7yTuw5ruixPkG-106">
          <mxGeometry x="477" width="242" height="54" as="geometry">
            <mxRectangle width="242" height="54" as="alternateBounds" />
          </mxGeometry>
        </mxCell>
        <mxCell id="aY_WkBI7yTuw5ruixPkG-109" value="EJERCICIO" style="shape=table;startSize=30;container=1;collapsible=0;childLayout=tableLayout;strokeColor=default;fontSize=16;" vertex="1" parent="1">
          <mxGeometry x="630" y="400" width="743" height="240" as="geometry" />
        </mxCell>
        <mxCell id="aY_WkBI7yTuw5ruixPkG-110" value="" style="shape=tableRow;horizontal=0;startSize=0;swimlaneHead=0;swimlaneBody=0;strokeColor=inherit;top=0;left=0;bottom=0;right=0;collapsible=0;dropTarget=0;fillColor=none;points=[[0,0.5],[1,0.5]];portConstraint=eastwest;fontSize=16;" vertex="1" parent="aY_WkBI7yTuw5ruixPkG-109">
          <mxGeometry y="30" width="743" height="70" as="geometry" />
        </mxCell>
        <mxCell id="aY_WkBI7yTuw5ruixPkG-111" value="PK.NOMBRE" style="shape=partialRectangle;html=1;whiteSpace=wrap;connectable=0;strokeColor=inherit;overflow=hidden;fillColor=none;top=0;left=0;bottom=0;right=0;pointerEvents=1;fontSize=16;" vertex="1" parent="aY_WkBI7yTuw5ruixPkG-110">
          <mxGeometry width="247" height="70" as="geometry">
            <mxRectangle width="247" height="70" as="alternateBounds" />
          </mxGeometry>
        </mxCell>
        <mxCell id="aY_WkBI7yTuw5ruixPkG-112" value="NUMERO DE SERIES" style="shape=partialRectangle;html=1;whiteSpace=wrap;connectable=0;strokeColor=inherit;overflow=hidden;fillColor=none;top=0;left=0;bottom=0;right=0;pointerEvents=1;fontSize=16;" vertex="1" parent="aY_WkBI7yTuw5ruixPkG-110">
          <mxGeometry x="247" width="249" height="70" as="geometry">
            <mxRectangle width="249" height="70" as="alternateBounds" />
          </mxGeometry>
        </mxCell>
        <mxCell id="aY_WkBI7yTuw5ruixPkG-113" value="NUMERO DE REPETICIONES" style="shape=partialRectangle;html=1;whiteSpace=wrap;connectable=0;strokeColor=inherit;overflow=hidden;fillColor=none;top=0;left=0;bottom=0;right=0;pointerEvents=1;fontSize=16;" vertex="1" parent="aY_WkBI7yTuw5ruixPkG-110">
          <mxGeometry x="496" width="247" height="70" as="geometry">
            <mxRectangle width="247" height="70" as="alternateBounds" />
          </mxGeometry>
        </mxCell>
        <mxCell id="aY_WkBI7yTuw5ruixPkG-114" value="" style="shape=tableRow;horizontal=0;startSize=0;swimlaneHead=0;swimlaneBody=0;strokeColor=inherit;top=0;left=0;bottom=0;right=0;collapsible=0;dropTarget=0;fillColor=none;points=[[0,0.5],[1,0.5]];portConstraint=eastwest;fontSize=16;" vertex="1" parent="aY_WkBI7yTuw5ruixPkG-109">
          <mxGeometry y="100" width="743" height="70" as="geometry" />
        </mxCell>
        <mxCell id="aY_WkBI7yTuw5ruixPkG-115" value="" style="shape=partialRectangle;html=1;whiteSpace=wrap;connectable=0;strokeColor=inherit;overflow=hidden;fillColor=none;top=0;left=0;bottom=0;right=0;pointerEvents=1;fontSize=16;" vertex="1" parent="aY_WkBI7yTuw5ruixPkG-114">
          <mxGeometry width="247" height="70" as="geometry">
            <mxRectangle width="247" height="70" as="alternateBounds" />
          </mxGeometry>
        </mxCell>
        <mxCell id="aY_WkBI7yTuw5ruixPkG-116" value="" style="shape=partialRectangle;html=1;whiteSpace=wrap;connectable=0;strokeColor=inherit;overflow=hidden;fillColor=none;top=0;left=0;bottom=0;right=0;pointerEvents=1;fontSize=16;" vertex="1" parent="aY_WkBI7yTuw5ruixPkG-114">
          <mxGeometry x="247" width="249" height="70" as="geometry">
            <mxRectangle width="249" height="70" as="alternateBounds" />
          </mxGeometry>
        </mxCell>
        <mxCell id="aY_WkBI7yTuw5ruixPkG-117" value="" style="shape=partialRectangle;html=1;whiteSpace=wrap;connectable=0;strokeColor=inherit;overflow=hidden;fillColor=none;top=0;left=0;bottom=0;right=0;pointerEvents=1;fontSize=16;" vertex="1" parent="aY_WkBI7yTuw5ruixPkG-114">
          <mxGeometry x="496" width="247" height="70" as="geometry">
            <mxRectangle width="247" height="70" as="alternateBounds" />
          </mxGeometry>
        </mxCell>
        <mxCell id="aY_WkBI7yTuw5ruixPkG-118" value="" style="shape=tableRow;horizontal=0;startSize=0;swimlaneHead=0;swimlaneBody=0;strokeColor=inherit;top=0;left=0;bottom=0;right=0;collapsible=0;dropTarget=0;fillColor=none;points=[[0,0.5],[1,0.5]];portConstraint=eastwest;fontSize=16;" vertex="1" parent="aY_WkBI7yTuw5ruixPkG-109">
          <mxGeometry y="170" width="743" height="70" as="geometry" />
        </mxCell>
        <mxCell id="aY_WkBI7yTuw5ruixPkG-119" value="" style="shape=partialRectangle;html=1;whiteSpace=wrap;connectable=0;strokeColor=inherit;overflow=hidden;fillColor=none;top=0;left=0;bottom=0;right=0;pointerEvents=1;fontSize=16;" vertex="1" parent="aY_WkBI7yTuw5ruixPkG-118">
          <mxGeometry width="247" height="70" as="geometry">
            <mxRectangle width="247" height="70" as="alternateBounds" />
          </mxGeometry>
        </mxCell>
        <mxCell id="aY_WkBI7yTuw5ruixPkG-120" value="" style="shape=partialRectangle;html=1;whiteSpace=wrap;connectable=0;strokeColor=inherit;overflow=hidden;fillColor=none;top=0;left=0;bottom=0;right=0;pointerEvents=1;fontSize=16;" vertex="1" parent="aY_WkBI7yTuw5ruixPkG-118">
          <mxGeometry x="247" width="249" height="70" as="geometry">
            <mxRectangle width="249" height="70" as="alternateBounds" />
          </mxGeometry>
        </mxCell>
        <mxCell id="aY_WkBI7yTuw5ruixPkG-121" value="" style="shape=partialRectangle;html=1;whiteSpace=wrap;connectable=0;strokeColor=inherit;overflow=hidden;fillColor=none;top=0;left=0;bottom=0;right=0;pointerEvents=1;fontSize=16;" vertex="1" parent="aY_WkBI7yTuw5ruixPkG-118">
          <mxGeometry x="496" width="247" height="70" as="geometry">
            <mxRectangle width="247" height="70" as="alternateBounds" />
          </mxGeometry>
        </mxCell>
        <mxCell id="aY_WkBI7yTuw5ruixPkG-122" value="MATERIAL" style="shape=table;startSize=30;container=1;collapsible=0;childLayout=tableLayout;strokeColor=default;fontSize=16;" vertex="1" parent="1">
          <mxGeometry x="1670" y="470" width="180" height="130" as="geometry" />
        </mxCell>
        <mxCell id="aY_WkBI7yTuw5ruixPkG-123" value="" style="shape=tableRow;horizontal=0;startSize=0;swimlaneHead=0;swimlaneBody=0;strokeColor=inherit;top=0;left=0;bottom=0;right=0;collapsible=0;dropTarget=0;fillColor=none;points=[[0,0.5],[1,0.5]];portConstraint=eastwest;fontSize=16;" vertex="1" parent="aY_WkBI7yTuw5ruixPkG-122">
          <mxGeometry y="30" width="180" height="100" as="geometry" />
        </mxCell>
        <mxCell id="aY_WkBI7yTuw5ruixPkG-124" value="PK.NOMBRE" style="shape=partialRectangle;html=1;whiteSpace=wrap;connectable=0;strokeColor=inherit;overflow=hidden;fillColor=none;top=0;left=0;bottom=0;right=0;pointerEvents=1;fontSize=16;" vertex="1" parent="aY_WkBI7yTuw5ruixPkG-123">
          <mxGeometry width="180" height="100" as="geometry">
            <mxRectangle width="180" height="100" as="alternateBounds" />
          </mxGeometry>
        </mxCell>
        <mxCell id="aY_WkBI7yTuw5ruixPkG-137" value="MATERIAL_EJERCICIO" style="shape=table;startSize=30;container=1;collapsible=0;childLayout=tableLayout;strokeColor=default;fontSize=16;" vertex="1" parent="1">
          <mxGeometry x="1890" y="445" width="394" height="180" as="geometry" />
        </mxCell>
        <mxCell id="aY_WkBI7yTuw5ruixPkG-138" value="" style="shape=tableRow;horizontal=0;startSize=0;swimlaneHead=0;swimlaneBody=0;strokeColor=inherit;top=0;left=0;bottom=0;right=0;collapsible=0;dropTarget=0;fillColor=none;points=[[0,0.5],[1,0.5]];portConstraint=eastwest;fontSize=16;" vertex="1" parent="aY_WkBI7yTuw5ruixPkG-137">
          <mxGeometry y="30" width="394" height="50" as="geometry" />
        </mxCell>
        <mxCell id="aY_WkBI7yTuw5ruixPkG-139" value="FK.NOMBREMATERIAL" style="shape=partialRectangle;html=1;whiteSpace=wrap;connectable=0;strokeColor=inherit;overflow=hidden;fillColor=none;top=0;left=0;bottom=0;right=0;pointerEvents=1;fontSize=16;" vertex="1" parent="aY_WkBI7yTuw5ruixPkG-138">
          <mxGeometry width="196" height="50" as="geometry">
            <mxRectangle width="196" height="50" as="alternateBounds" />
          </mxGeometry>
        </mxCell>
        <mxCell id="aY_WkBI7yTuw5ruixPkG-140" value="FK.NOMBREEJERCICIO" style="shape=partialRectangle;html=1;whiteSpace=wrap;connectable=0;strokeColor=inherit;overflow=hidden;fillColor=none;top=0;left=0;bottom=0;right=0;pointerEvents=1;fontSize=16;" vertex="1" parent="aY_WkBI7yTuw5ruixPkG-138">
          <mxGeometry x="196" width="198" height="50" as="geometry">
            <mxRectangle width="198" height="50" as="alternateBounds" />
          </mxGeometry>
        </mxCell>
        <mxCell id="aY_WkBI7yTuw5ruixPkG-142" value="" style="shape=tableRow;horizontal=0;startSize=0;swimlaneHead=0;swimlaneBody=0;strokeColor=inherit;top=0;left=0;bottom=0;right=0;collapsible=0;dropTarget=0;fillColor=none;points=[[0,0.5],[1,0.5]];portConstraint=eastwest;fontSize=16;" vertex="1" parent="aY_WkBI7yTuw5ruixPkG-137">
          <mxGeometry y="80" width="394" height="50" as="geometry" />
        </mxCell>
        <mxCell id="aY_WkBI7yTuw5ruixPkG-143" value="" style="shape=partialRectangle;html=1;whiteSpace=wrap;connectable=0;strokeColor=inherit;overflow=hidden;fillColor=none;top=0;left=0;bottom=0;right=0;pointerEvents=1;fontSize=16;" vertex="1" parent="aY_WkBI7yTuw5ruixPkG-142">
          <mxGeometry width="196" height="50" as="geometry">
            <mxRectangle width="196" height="50" as="alternateBounds" />
          </mxGeometry>
        </mxCell>
        <mxCell id="aY_WkBI7yTuw5ruixPkG-144" value="" style="shape=partialRectangle;html=1;whiteSpace=wrap;connectable=0;strokeColor=inherit;overflow=hidden;fillColor=none;top=0;left=0;bottom=0;right=0;pointerEvents=1;fontSize=16;" vertex="1" parent="aY_WkBI7yTuw5ruixPkG-142">
          <mxGeometry x="196" width="198" height="50" as="geometry">
            <mxRectangle width="198" height="50" as="alternateBounds" />
          </mxGeometry>
        </mxCell>
        <mxCell id="aY_WkBI7yTuw5ruixPkG-146" value="" style="shape=tableRow;horizontal=0;startSize=0;swimlaneHead=0;swimlaneBody=0;strokeColor=inherit;top=0;left=0;bottom=0;right=0;collapsible=0;dropTarget=0;fillColor=none;points=[[0,0.5],[1,0.5]];portConstraint=eastwest;fontSize=16;" vertex="1" parent="aY_WkBI7yTuw5ruixPkG-137">
          <mxGeometry y="130" width="394" height="50" as="geometry" />
        </mxCell>
        <mxCell id="aY_WkBI7yTuw5ruixPkG-147" value="" style="shape=partialRectangle;html=1;whiteSpace=wrap;connectable=0;strokeColor=inherit;overflow=hidden;fillColor=none;top=0;left=0;bottom=0;right=0;pointerEvents=1;fontSize=16;" vertex="1" parent="aY_WkBI7yTuw5ruixPkG-146">
          <mxGeometry width="196" height="50" as="geometry">
            <mxRectangle width="196" height="50" as="alternateBounds" />
          </mxGeometry>
        </mxCell>
        <mxCell id="aY_WkBI7yTuw5ruixPkG-148" value="" style="shape=partialRectangle;html=1;whiteSpace=wrap;connectable=0;strokeColor=inherit;overflow=hidden;fillColor=none;top=0;left=0;bottom=0;right=0;pointerEvents=1;fontSize=16;" vertex="1" parent="aY_WkBI7yTuw5ruixPkG-146">
          <mxGeometry x="196" width="198" height="50" as="geometry">
            <mxRectangle width="198" height="50" as="alternateBounds" />
          </mxGeometry>
        </mxCell>
        <mxCell id="aY_WkBI7yTuw5ruixPkG-156" value="ENTRENADOR_PLANIFICACION_CLIENTE" style="shape=table;startSize=30;container=1;collapsible=0;childLayout=tableLayout;strokeColor=default;fontSize=16;" vertex="1" parent="1">
          <mxGeometry x="831" y="20" width="719" height="190" as="geometry" />
        </mxCell>
        <mxCell id="aY_WkBI7yTuw5ruixPkG-157" value="" style="shape=tableRow;horizontal=0;startSize=0;swimlaneHead=0;swimlaneBody=0;strokeColor=inherit;top=0;left=0;bottom=0;right=0;collapsible=0;dropTarget=0;fillColor=none;points=[[0,0.5],[1,0.5]];portConstraint=eastwest;fontSize=16;" vertex="1" parent="aY_WkBI7yTuw5ruixPkG-156">
          <mxGeometry y="30" width="719" height="54" as="geometry" />
        </mxCell>
        <mxCell id="aY_WkBI7yTuw5ruixPkG-158" value="FK.DNIENTRENADOR" style="shape=partialRectangle;html=1;whiteSpace=wrap;connectable=0;strokeColor=inherit;overflow=hidden;fillColor=none;top=0;left=0;bottom=0;right=0;pointerEvents=1;fontSize=16;" vertex="1" parent="aY_WkBI7yTuw5ruixPkG-157">
          <mxGeometry width="236" height="54" as="geometry">
            <mxRectangle width="236" height="54" as="alternateBounds" />
          </mxGeometry>
        </mxCell>
        <mxCell id="aY_WkBI7yTuw5ruixPkG-159" value="FK.DNICLIENTE" style="shape=partialRectangle;html=1;whiteSpace=wrap;connectable=0;strokeColor=inherit;overflow=hidden;fillColor=none;top=0;left=0;bottom=0;right=0;pointerEvents=1;fontSize=16;" vertex="1" parent="aY_WkBI7yTuw5ruixPkG-157">
          <mxGeometry x="236" width="241" height="54" as="geometry">
            <mxRectangle width="241" height="54" as="alternateBounds" />
          </mxGeometry>
        </mxCell>
        <mxCell id="aY_WkBI7yTuw5ruixPkG-160" value="FK.CODIGOPLANIFICACION" style="shape=partialRectangle;html=1;whiteSpace=wrap;connectable=0;strokeColor=inherit;overflow=hidden;fillColor=none;top=0;left=0;bottom=0;right=0;pointerEvents=1;fontSize=16;" vertex="1" parent="aY_WkBI7yTuw5ruixPkG-157">
          <mxGeometry x="477" width="242" height="54" as="geometry">
            <mxRectangle width="242" height="54" as="alternateBounds" />
          </mxGeometry>
        </mxCell>
        <mxCell id="aY_WkBI7yTuw5ruixPkG-161" value="" style="shape=tableRow;horizontal=0;startSize=0;swimlaneHead=0;swimlaneBody=0;strokeColor=inherit;top=0;left=0;bottom=0;right=0;collapsible=0;dropTarget=0;fillColor=none;points=[[0,0.5],[1,0.5]];portConstraint=eastwest;fontSize=16;" vertex="1" parent="aY_WkBI7yTuw5ruixPkG-156">
          <mxGeometry y="84" width="719" height="52" as="geometry" />
        </mxCell>
        <mxCell id="aY_WkBI7yTuw5ruixPkG-162" value="" style="shape=partialRectangle;html=1;whiteSpace=wrap;connectable=0;strokeColor=inherit;overflow=hidden;fillColor=none;top=0;left=0;bottom=0;right=0;pointerEvents=1;fontSize=16;" vertex="1" parent="aY_WkBI7yTuw5ruixPkG-161">
          <mxGeometry width="236" height="52" as="geometry">
            <mxRectangle width="236" height="52" as="alternateBounds" />
          </mxGeometry>
        </mxCell>
        <mxCell id="aY_WkBI7yTuw5ruixPkG-163" value="" style="shape=partialRectangle;html=1;whiteSpace=wrap;connectable=0;strokeColor=inherit;overflow=hidden;fillColor=none;top=0;left=0;bottom=0;right=0;pointerEvents=1;fontSize=16;" vertex="1" parent="aY_WkBI7yTuw5ruixPkG-161">
          <mxGeometry x="236" width="241" height="52" as="geometry">
            <mxRectangle width="241" height="52" as="alternateBounds" />
          </mxGeometry>
        </mxCell>
        <mxCell id="aY_WkBI7yTuw5ruixPkG-164" style="shape=partialRectangle;html=1;whiteSpace=wrap;connectable=0;strokeColor=inherit;overflow=hidden;fillColor=none;top=0;left=0;bottom=0;right=0;pointerEvents=1;fontSize=16;" vertex="1" parent="aY_WkBI7yTuw5ruixPkG-161">
          <mxGeometry x="477" width="242" height="52" as="geometry">
            <mxRectangle width="242" height="52" as="alternateBounds" />
          </mxGeometry>
        </mxCell>
        <mxCell id="aY_WkBI7yTuw5ruixPkG-165" value="" style="shape=tableRow;horizontal=0;startSize=0;swimlaneHead=0;swimlaneBody=0;strokeColor=inherit;top=0;left=0;bottom=0;right=0;collapsible=0;dropTarget=0;fillColor=none;points=[[0,0.5],[1,0.5]];portConstraint=eastwest;fontSize=16;" vertex="1" parent="aY_WkBI7yTuw5ruixPkG-156">
          <mxGeometry y="136" width="719" height="54" as="geometry" />
        </mxCell>
        <mxCell id="aY_WkBI7yTuw5ruixPkG-166" value="" style="shape=partialRectangle;html=1;whiteSpace=wrap;connectable=0;strokeColor=inherit;overflow=hidden;fillColor=none;top=0;left=0;bottom=0;right=0;pointerEvents=1;fontSize=16;" vertex="1" parent="aY_WkBI7yTuw5ruixPkG-165">
          <mxGeometry width="236" height="54" as="geometry">
            <mxRectangle width="236" height="54" as="alternateBounds" />
          </mxGeometry>
        </mxCell>
        <mxCell id="aY_WkBI7yTuw5ruixPkG-167" value="" style="shape=partialRectangle;html=1;whiteSpace=wrap;connectable=0;strokeColor=inherit;overflow=hidden;fillColor=none;top=0;left=0;bottom=0;right=0;pointerEvents=1;fontSize=16;" vertex="1" parent="aY_WkBI7yTuw5ruixPkG-165">
          <mxGeometry x="236" width="241" height="54" as="geometry">
            <mxRectangle width="241" height="54" as="alternateBounds" />
          </mxGeometry>
        </mxCell>
        <mxCell id="aY_WkBI7yTuw5ruixPkG-168" style="shape=partialRectangle;html=1;whiteSpace=wrap;connectable=0;strokeColor=inherit;overflow=hidden;fillColor=none;top=0;left=0;bottom=0;right=0;pointerEvents=1;fontSize=16;" vertex="1" parent="aY_WkBI7yTuw5ruixPkG-165">
          <mxGeometry x="477" width="242" height="54" as="geometry">
            <mxRectangle width="242" height="54" as="alternateBounds" />
          </mxGeometry>
        </mxCell>
        <mxCell id="aY_WkBI7yTuw5ruixPkG-169" value="ENTRENAMIENTO_EJERCICIO" style="shape=table;startSize=30;container=1;collapsible=0;childLayout=tableLayout;strokeColor=default;fontSize=16;" vertex="1" parent="1">
          <mxGeometry x="2310" y="130" width="540" height="225" as="geometry" />
        </mxCell>
        <mxCell id="aY_WkBI7yTuw5ruixPkG-170" value="" style="shape=tableRow;horizontal=0;startSize=0;swimlaneHead=0;swimlaneBody=0;strokeColor=inherit;top=0;left=0;bottom=0;right=0;collapsible=0;dropTarget=0;fillColor=none;points=[[0,0.5],[1,0.5]];portConstraint=eastwest;fontSize=16;" vertex="1" parent="aY_WkBI7yTuw5ruixPkG-169">
          <mxGeometry y="30" width="540" height="65" as="geometry" />
        </mxCell>
        <mxCell id="aY_WkBI7yTuw5ruixPkG-171" value="FK.CODIGOENTRENAMIENTO" style="shape=partialRectangle;html=1;whiteSpace=wrap;connectable=0;strokeColor=inherit;overflow=hidden;fillColor=none;top=0;left=0;bottom=0;right=0;pointerEvents=1;fontSize=16;" vertex="1" parent="aY_WkBI7yTuw5ruixPkG-170">
          <mxGeometry width="269" height="65" as="geometry">
            <mxRectangle width="269" height="65" as="alternateBounds" />
          </mxGeometry>
        </mxCell>
        <mxCell id="aY_WkBI7yTuw5ruixPkG-172" value="FK.NOMBREEJERCICIO" style="shape=partialRectangle;html=1;whiteSpace=wrap;connectable=0;strokeColor=inherit;overflow=hidden;fillColor=none;top=0;left=0;bottom=0;right=0;pointerEvents=1;fontSize=16;" vertex="1" parent="aY_WkBI7yTuw5ruixPkG-170">
          <mxGeometry x="269" width="271" height="65" as="geometry">
            <mxRectangle width="271" height="65" as="alternateBounds" />
          </mxGeometry>
        </mxCell>
        <mxCell id="aY_WkBI7yTuw5ruixPkG-173" value="" style="shape=tableRow;horizontal=0;startSize=0;swimlaneHead=0;swimlaneBody=0;strokeColor=inherit;top=0;left=0;bottom=0;right=0;collapsible=0;dropTarget=0;fillColor=none;points=[[0,0.5],[1,0.5]];portConstraint=eastwest;fontSize=16;" vertex="1" parent="aY_WkBI7yTuw5ruixPkG-169">
          <mxGeometry y="95" width="540" height="65" as="geometry" />
        </mxCell>
        <mxCell id="aY_WkBI7yTuw5ruixPkG-174" value="" style="shape=partialRectangle;html=1;whiteSpace=wrap;connectable=0;strokeColor=inherit;overflow=hidden;fillColor=none;top=0;left=0;bottom=0;right=0;pointerEvents=1;fontSize=16;" vertex="1" parent="aY_WkBI7yTuw5ruixPkG-173">
          <mxGeometry width="269" height="65" as="geometry">
            <mxRectangle width="269" height="65" as="alternateBounds" />
          </mxGeometry>
        </mxCell>
        <mxCell id="aY_WkBI7yTuw5ruixPkG-175" value="" style="shape=partialRectangle;html=1;whiteSpace=wrap;connectable=0;strokeColor=inherit;overflow=hidden;fillColor=none;top=0;left=0;bottom=0;right=0;pointerEvents=1;fontSize=16;" vertex="1" parent="aY_WkBI7yTuw5ruixPkG-173">
          <mxGeometry x="269" width="271" height="65" as="geometry">
            <mxRectangle width="271" height="65" as="alternateBounds" />
          </mxGeometry>
        </mxCell>
        <mxCell id="aY_WkBI7yTuw5ruixPkG-176" value="" style="shape=tableRow;horizontal=0;startSize=0;swimlaneHead=0;swimlaneBody=0;strokeColor=inherit;top=0;left=0;bottom=0;right=0;collapsible=0;dropTarget=0;fillColor=none;points=[[0,0.5],[1,0.5]];portConstraint=eastwest;fontSize=16;" vertex="1" parent="aY_WkBI7yTuw5ruixPkG-169">
          <mxGeometry y="160" width="540" height="65" as="geometry" />
        </mxCell>
        <mxCell id="aY_WkBI7yTuw5ruixPkG-177" value="" style="shape=partialRectangle;html=1;whiteSpace=wrap;connectable=0;strokeColor=inherit;overflow=hidden;fillColor=none;top=0;left=0;bottom=0;right=0;pointerEvents=1;fontSize=16;" vertex="1" parent="aY_WkBI7yTuw5ruixPkG-176">
          <mxGeometry width="269" height="65" as="geometry">
            <mxRectangle width="269" height="65" as="alternateBounds" />
          </mxGeometry>
        </mxCell>
        <mxCell id="aY_WkBI7yTuw5ruixPkG-178" value="" style="shape=partialRectangle;html=1;whiteSpace=wrap;connectable=0;strokeColor=inherit;overflow=hidden;fillColor=none;top=0;left=0;bottom=0;right=0;pointerEvents=1;fontSize=16;" vertex="1" parent="aY_WkBI7yTuw5ruixPkG-176">
          <mxGeometry x="269" width="271" height="65" as="geometry">
            <mxRectangle width="271" height="65" as="alternateBounds" />
          </mxGeometry>
        </mxCell>
      </root>
    </mxGraphModel>
  </diagram>
</mxfile>
